<svg xmlns="http://www.w3.org/2000/svg" width="226.094" height="63.031" viewBox="0 0 226.094 63.031">
  <defs>
    <style>
      .cls-1 {
        fill: #333;
        fill-rule: evenodd;
      }
    </style>
  </defs>
  <path id="Mismit" class="cls-1" d="M264.959,104.193q-1.247,1.7-2.673,3.355a21.472,21.472,0,0,1-3.153,2.989,17.431,17.431,0,0,1-3.67,2.181,10.523,10.523,0,0,1-4.225.86,13.406,13.406,0,0,1-8.982-2.839q-3.393-2.856-3.413-9.328a37.877,37.877,0,0,1,.856-7.945,16.532,16.532,0,0,1-2.752,1.627,6.873,6.873,0,0,1-2.9.671,3,3,0,0,1-2.467-1.021,3.808,3.808,0,0,1-.854-2.5,7.116,7.116,0,0,1,.761-3.422,8.649,8.649,0,0,1,2.014-2.507,14.6,14.6,0,0,1,2.825-1.885q1.578-.813,3.268-1.481a14.7,14.7,0,0,1,1.616-.63q0.807-.26,1.616-0.557l0.946-2.871a24.283,24.283,0,0,1,4.348-8.545,8.985,8.985,0,0,1,7.16-3.039,3.752,3.752,0,0,1,2.981.983,3.668,3.668,0,0,1,.854,2.461,4.327,4.327,0,0,1-.29,1.288q-0.291.847-.8,2.025t-1.095,2.5q-0.585,1.325-1.241,2.725,3.088-.231,4.926-0.237a5.781,5.781,0,0,1,2.1.324,1.165,1.165,0,0,1,.85,1.137,0.98,0.98,0,0,1-.733.775,17.242,17.242,0,0,1-1.763.668q-1.029.334-2.167,0.632a15.907,15.907,0,0,0-1.873.595,38.849,38.849,0,0,0-3.892,1.851l-0.584,1.4a78.193,78.193,0,0,0-2.473,8.061,33.889,33.889,0,0,0-1,8.35,5.323,5.323,0,0,0,1.41,4.04,4.832,4.832,0,0,0,3.461,1.312,7.629,7.629,0,0,0,3.38-.93,16.975,16.975,0,0,0,3.522-2.4q1.32-1.179,2.235-2.177a2.492,2.492,0,0,1,1.652-1,1.424,1.424,0,0,1,.7.182,0.545,0.545,0,0,1,.333.477A3.718,3.718,0,0,1,264.959,104.193ZM229.375,73.754a8.77,8.77,0,0,1-2.79,1.406,11.74,11.74,0,0,1-3.418.489,5.409,5.409,0,0,1-5.68-5.276,5.544,5.544,0,0,1,.69-2.686,8.154,8.154,0,0,1,1.831-2.286,9.059,9.059,0,0,1,2.6-1.59,8.06,8.06,0,0,1,3.013-.6,7.517,7.517,0,0,1,4.454,1.309,4.7,4.7,0,0,1,1.889,4.112,6,6,0,0,1-.689,2.907A6.848,6.848,0,0,1,229.375,73.754Zm-7.877,8.52a6.258,6.258,0,0,1,3.607,1.091,3.465,3.465,0,0,1,1.627,3.01,19.778,19.778,0,0,1-.464,4.083q-0.472,2.246-1.051,4.563t-1.052,4.526a18.925,18.925,0,0,0-.465,3.973,4.789,4.789,0,0,0,1,3.343,3.487,3.487,0,0,0,2.688,1.057,7.565,7.565,0,0,0,3.233-.856,12.7,12.7,0,0,0,3.448-2.549,13.1,13.1,0,0,0,1.5-1.733,1.325,1.325,0,0,1,1.064-.7,0.74,0.74,0,0,1,.589.255,0.837,0.837,0,0,1,.222.551,3.077,3.077,0,0,1-.8,1.768q-1.245,1.623-2.6,3.208a24.639,24.639,0,0,1-2.9,2.877,14.17,14.17,0,0,1-3.376,2.107,9.924,9.924,0,0,1-4.042.822,10.358,10.358,0,0,1-4.452-.867,8.6,8.6,0,0,1-3.1-2.38,10.443,10.443,0,0,1-1.85-3.561c-0.129-.418-0.231-0.853-0.321-1.294a24.547,24.547,0,0,1-2.139,2.3,22.846,22.846,0,0,1-4.072,3.029,9.369,9.369,0,0,1-4.812,1.376,4.628,4.628,0,0,1-3.976-1.568,5.929,5.929,0,0,1-1.189-3.636,22.4,22.4,0,0,1,.139-2.5q0.143-1.325.285-2.612t0.287-2.427a9.186,9.186,0,0,0,.067-1.949,3.443,3.443,0,0,0-.447-1.653,1.563,1.563,0,0,0-1.4-.547q-1.694.006-3.118,2.364t-3.252,6.188q-0.876,1.842-1.57,3.462a18.024,18.024,0,0,1-1.5,2.836,6.885,6.885,0,0,1-1.832,1.918,4.475,4.475,0,0,1-2.572.707,4.05,4.05,0,0,1-2.023-.434,2.83,2.83,0,0,1-1.144-1.136,5.208,5.208,0,0,1-.52-1.617q-0.152-.918-0.227-1.874a12.909,12.909,0,0,1,.066-2.28q0.141-1.545.32-3.2t0.321-3.053q0.142-1.4.141-1.913a3.225,3.225,0,0,0-.631-1.689,1.9,1.9,0,0,0-1.657-.95,4.467,4.467,0,0,0-2.278.706,10.853,10.853,0,0,0-2.566,2.362,35.43,35.43,0,0,0-3.037,4.386q-1.645,2.727-3.618,6.778a22.876,22.876,0,0,1-2.451,3.942,3.829,3.829,0,0,1-2.972,1.738,3.607,3.607,0,0,1-2.835-1.02,5.968,5.968,0,0,1-1.078-3.6,38.008,38.008,0,0,1,.06-3.9c0.029-.562.062-1.146,0.1-1.739-0.453.274-.95,0.558-1.533,0.862q-1.138.592-2.349,1.294t-2.018,1.22q0.073,0.369.113,0.735t0.039,0.736a11.214,11.214,0,0,1-1.27,5.115,17.458,17.458,0,0,1-7.77,7.747,10.717,10.717,0,0,1-4.739,1.229q-4.413.015-6.183-1.781a5.608,5.608,0,0,1-1.779-4q-0.008-2.5,2.815-5.157t8.7-4.294q-1.768-.95-3.684-2.01a18.651,18.651,0,0,1-3.464-2.453,12.207,12.207,0,0,1-2.585-3.3,9.475,9.475,0,0,1-1.044-4.556,12.927,12.927,0,0,1,2.256-7.067A23.449,23.449,0,0,1,138.4,82.4a15.671,15.671,0,0,1,4.624-2.442,15.293,15.293,0,0,1,4.411-.676,5.05,5.05,0,0,1,2.17.4,3.942,3.942,0,0,1,1.364,1.025,3.445,3.445,0,0,1,.7,1.358,5.806,5.806,0,0,1,.189,1.4,3.793,3.793,0,0,1-.728,2.172,17.306,17.306,0,0,1-1.8,2.176q-1.064,1.107-2.346,2.214a29.458,29.458,0,0,0-2.346,2.251,15.244,15.244,0,0,0-1.794,2.322,4.4,4.4,0,0,0-.727,2.356,4.583,4.583,0,0,0,.854,2.681,13.091,13.091,0,0,0,1.993,2.236,21.489,21.489,0,0,0,2.4,1.867q1.253,0.843,2.064,1.5,1.028-.444,2.24-0.89t2.351-.817q1.139-.37,2.02-0.631a7.076,7.076,0,0,1,.95-0.222c0.054-.811.113-1.64,0.18-2.5q0.246-3.2.567-6.437t0.607-5.591a12.85,12.85,0,0,1,2.3-6.075,6.181,6.181,0,0,1,5.251-2.407,4.978,4.978,0,0,1,3.092,1.056,3.775,3.775,0,0,1,1.408,3.194,38.309,38.309,0,0,1-.929,8.387q1.244-1.99,2.525-3.759a16.562,16.562,0,0,1,2.895-3.1,13.8,13.8,0,0,1,3.633-2.145,12.729,12.729,0,0,1,4.74-.825,6.171,6.171,0,0,1,3.165.762,7.152,7.152,0,0,1,2.213,1.978A9.554,9.554,0,0,1,190,87.894a19.4,19.4,0,0,1,.708,2.792,17.145,17.145,0,0,1,5.246-3.841,14.9,14.9,0,0,1,5.769-1.048,4.849,4.849,0,0,1,2.429.617,7.234,7.234,0,0,1,1.954,1.612A6.983,6.983,0,0,1,207.4,90.3a8.248,8.248,0,0,1,.451,2.683,20.106,20.106,0,0,1-.392,4.083q-0.4,1.951-.907,3.607t-0.872,3.055a7.289,7.289,0,0,0-.287,2.354,2.735,2.735,0,0,0,.336,1.359,1.317,1.317,0,0,0,1.067.328,4.519,4.519,0,0,0,1.543-.336,9.627,9.627,0,0,0,1.8-.926,17.787,17.787,0,0,0,1.834-1.366,10.05,10.05,0,0,0,1.576-1.66c0.06-.076.117-0.132,0.176-0.2-0.016-.3-0.032-0.6-0.033-0.9q-0.009-2.94.164-6.067a65.612,65.612,0,0,1,.75-6.731,15.654,15.654,0,0,1,.691-2.392,9.132,9.132,0,0,1,1.315-2.394,6.92,6.92,0,0,1,2.054-1.808A5.577,5.577,0,0,1,221.5,82.274Zm-77.936,27.173a18.343,18.343,0,0,0-6.056,3.219,4.307,4.307,0,0,0-1.646,2.837,2.274,2.274,0,0,0,.779,1.873,3,3,0,0,0,1.951.618,7.956,7.956,0,0,0,2.2-.375,8.771,8.771,0,0,0,2.276-1.037,6.676,6.676,0,0,0,1.759-1.66,3.788,3.788,0,0,0,.728-2.319A3.67,3.67,0,0,0,143.562,109.447Zm-11.5-7.022a0.735,0.735,0,0,1,.589.256,0.836,0.836,0,0,1,.223.55,3.091,3.091,0,0,1-.8,1.768q-1.246,1.623-2.6,3.208a24.486,24.486,0,0,1-2.895,2.877,14.17,14.17,0,0,1-3.376,2.107,9.941,9.941,0,0,1-4.042.823,10.376,10.376,0,0,1-4.452-.868,8.577,8.577,0,0,1-3.1-2.38,10.445,10.445,0,0,1-1.851-3.561c-0.131-.428-0.235-0.872-0.326-1.325a23.063,23.063,0,0,1-2.534,3.284,20.483,20.483,0,0,1-4.291,3.507,10.035,10.035,0,0,1-5.363,1.562,8.531,8.531,0,0,1-3.937-.869A8.77,8.77,0,0,1,90.4,111.02a10.453,10.453,0,0,1-1.813-3.487,14.734,14.734,0,0,1-.64-4.374,35.5,35.5,0,0,1,.75-6.878q0.759-3.863,1.7-7.507t1.707-6.588a19.275,19.275,0,0,0,.759-4.121,1.5,1.5,0,0,0-1.7-1.686q-1.4,0-3.043,2.731a43.992,43.992,0,0,0-3.286,7.071q-1.64,4.346-3.093,9.681t-2.539,10.562a9.327,9.327,0,0,1-2.483,5.082,6.281,6.281,0,0,1-4.407,1.633,4.457,4.457,0,0,1-4.088-2.046,8.959,8.959,0,0,1-1.3-4.849,38.778,38.778,0,0,1,.568-6.216q0.576-3.568,1.262-7.542t1.261-7.946a50.893,50.893,0,0,0,.564-7.429q-0.009-2.648-2.362-2.64a3.56,3.56,0,0,0-2.422,1.516A24.367,24.367,0,0,0,63.05,80.04a51.15,51.15,0,0,0-2.775,5.892Q58.925,89.283,57.761,93t-2.034,7.618A63.456,63.456,0,0,0,54.5,108.05a6.821,6.821,0,0,1-.874,2.687,10.33,10.33,0,0,1-1.794,2.322,9.124,9.124,0,0,1-2.348,1.663,5.669,5.669,0,0,1-2.461.633q-3.75.012-5.559-2.041a7.634,7.634,0,0,1-1.819-5.215,53.627,53.627,0,0,1,.566-6.768q0.573-4.34,1.218-9.638t1.14-11.035A94.443,94.443,0,0,0,42.9,69.627a5.667,5.667,0,0,1,.507-2.281,7.067,7.067,0,0,1,1.5-2.174,8.034,8.034,0,0,1,2.348-1.626,7.238,7.238,0,0,1,3.05-.635,5.057,5.057,0,0,1,3.055.872,5.617,5.617,0,0,1,1.885,2.9,18.13,18.13,0,0,1,.716,5.293,80.347,80.347,0,0,1-.378,8.054q2.835-10.084,6.937-14.915A13.376,13.376,0,0,1,73.17,60.261a7.112,7.112,0,0,1,4.27,1.31A10.165,10.165,0,0,1,80.5,65.237a16.6,16.6,0,0,1,1.636,5.547,28.753,28.753,0,0,1-.014,6.95q1.095-2.5,2.264-4.861a21.26,21.26,0,0,1,2.707-4.2,12.771,12.771,0,0,1,3.483-2.953A9.175,9.175,0,0,1,95.173,64.6a7.94,7.94,0,0,1,3.79.833,8.293,8.293,0,0,1,2.655,2.2,9.376,9.376,0,0,1,1.591,3.01,10.984,10.984,0,0,1,.525,3.271,22.587,22.587,0,0,1-.536,4.708q-0.543,2.577-1.342,5.336t-1.784,5.595q-0.983,2.835-1.783,5.485t-1.344,5.042a19.083,19.083,0,0,0-.538,4.23,5.766,5.766,0,0,0,1.005,3.747,3.961,3.961,0,0,0,3.2,1.166,6.21,6.21,0,0,0,3.38-1.04,19.618,19.618,0,0,0,2.934-2.29,30.517,30.517,0,0,0,2.2-2.287l0.027-.03c-0.014-.282-0.03-0.563-0.031-0.852q-0.009-2.942.164-6.068a65.61,65.61,0,0,1,.75-6.731,15.756,15.756,0,0,1,.691-2.392,9.107,9.107,0,0,1,1.316-2.394,6.916,6.916,0,0,1,2.053-1.809,5.577,5.577,0,0,1,2.829-.708,6.252,6.252,0,0,1,3.607,1.091,3.466,3.466,0,0,1,1.628,3.01A19.717,19.717,0,0,1,121.7,90.8q-0.471,2.246-1.051,4.563t-1.051,4.526a18.856,18.856,0,0,0-.465,3.972,4.782,4.782,0,0,0,1,3.343,3.485,3.485,0,0,0,2.687,1.057,7.565,7.565,0,0,0,3.233-.856,12.7,12.7,0,0,0,3.448-2.548,13.085,13.085,0,0,0,1.5-1.734A1.328,1.328,0,0,1,132.067,102.425ZM124.8,74.1a8.774,8.774,0,0,1-2.79,1.406A11.745,11.745,0,0,1,118.6,76a5.408,5.408,0,0,1-5.68-5.276,5.555,5.555,0,0,1,.69-2.686,8.2,8.2,0,0,1,1.831-2.286,9.08,9.08,0,0,1,2.606-1.59,8.056,8.056,0,0,1,3.013-.6,7.517,7.517,0,0,1,4.453,1.309A4.7,4.7,0,0,1,127.4,68.98a5.98,5.98,0,0,1-.689,2.907A6.848,6.848,0,0,1,124.8,74.1Z" transform="translate(-39.656 -60.25)"/>
</svg>
